<svg 
    xmlns="http://www.w3.org/2000/svg" 
    xmlns:xlink="http://www.w3.org/1999/xlink" 
    version="1.1" 
    x="125px" 
    y="125px" 
    viewBox="0 0 80 80" 
    enable-background="new 0 0 80 80" 
    xml:space="preserve">
    <path fill="#444444" d="M28.9,28l-8.4-8.4l2.1-2.1l8.4,8.4L28.9,28z M25,37H13v3h12V37z M62.8,19.3l-2.1-2.1L52,25.9l2.1,2.1  L62.8,19.3z M43,10h-3v12h3V10z M55,38.5C55,46,49,52,41.5,52S28,46,28,38.5S34,25,41.5,25S55,31,55,38.5z M52,38.5  C52,32.8,47.2,28,41.5,28S31,32.8,31,38.5S35.8,49,41.5,49S52,44.2,52,38.5z M58,37v3h12v-3H58z M52,51.1l8.4,8.4l2.1-2.1L54.1,49  L52,51.1z M40,67h3V55h-3V67z M20.2,57.7l2.1,2.1l8.4-8.4L28.9,49L20.2,57.7z M25.6,43.3l-5.4,2.4l1.2,2.7l5.4-2.4L25.6,43.3z   M34.3,17.2l-2.7,1.2l2.4,5.4l2.7-1.2L34.3,17.2z M56.2,30.7l1.2,2.7l5.4-2.4l-1.2-2.7L56.2,30.7z M48.7,59.8l2.7-1.2L49,53.2  l-2.7,1.2L48.7,59.8z M26.8,30.7l-5.4-2.4L20.2,31l5.4,2.4L26.8,30.7z M51.4,18.4l-2.7-1.2l-2.4,5.4l2.7,1.2L51.4,18.4z M57.4,43.3  L56.2,46l5.4,2.4l1.2-2.7L57.4,43.3z M31.6,58.6l2.7,1.2l2.4-5.4L34,53.2L31.6,58.6z"/>
</svg>